<?xml version="1.0" encoding="utf-8"?>
<!-- Generator: Adobe Illustrator 28.0.0, SVG Export Plug-In . SVG Version: 6.00 Build 0)  -->
<svg version="1.1" id="Capa_1" xmlns="http://www.w3.org/2000/svg" xmlns:xlink="http://www.w3.org/1999/xlink" x="0px" y="0px"
	 viewBox="0 0 283.5 85" style="enable-background:new 0 0 283.5 85;" xml:space="preserve">
<style type="text/css">
	.st0{fill:#F7941D;}
</style>
<path class="st0" d="M52.2,64.3H40.4c0-1.3-4.4-8.2-13.2-20.7c-9.2-13.2-14.4-22.2-15.7-27h-0.8c0.8,7,1.2,13.3,1.2,19
	c0,7.9,0.2,17.5,0.7,28.8H0.9c0.5-9.9,0.7-20.8,0.7-32.6S1.4,10.2,0.9,2h14.2c0,1.7,3.9,8.4,11.8,20.2c8.4,12.5,13.2,21,14.4,25.5
	h0.7c-0.8-7.1-1.2-13.5-1.2-19.1c0-8.6-0.2-17.5-0.7-26.6h12c-0.5,7.9-0.7,17.8-0.7,29.7S51.8,54.6,52.2,64.3L52.2,64.3z"/>
<path class="st0" d="M97,57.3c0,6.5-3.1,12.1-9.2,16.8c-7.1,5.5-16.8,8.6-29.4,9.3l-1.3-8c8.4-0.5,15-2.2,19.9-5.1
	c5.1-2.9,7.6-6.7,7.6-11.3c0-7.6-7.1-11.4-21.3-11.4l1-7.7c5.3,0,9.6-0.9,12.9-2.7c3.3-1.8,5-4.1,5-6.9c0-5.1-4-7.7-12-7.7
	c-3.6,0-6.8,0.3-9.5,0.9l0.9-8.9c2.2-0.8,6.8-1.2,13.7-1.2c6,0,10.7,1.2,13.9,3.7c3,2.3,4.5,5.5,4.5,9.4c0,3.1-1.1,6-3.4,8.6
	c-2.1,2.4-4.6,4.1-7.6,5v0.7c4.2,0.7,7.7,2.5,10.4,5.5C95.7,49.3,97.1,53,97,57.3L97,57.3z"/>
<path class="st0" d="M145.5,64.3l-11.2,0.4c-0.5-1.7-0.8-3.1-0.8-4.1h-0.8c-4.2,3.5-9.1,5.2-14.6,5.2c-5.3,0-9.2-1.4-11.9-4.1
	c-2.7-2.8-4-8.3-4-16.5c0-1,0-2.4,0.1-4.2c0.1-1.8,0.1-3.3,0.1-4.7c0-3.5-0.3-9.2-0.9-16.9l13.3-0.5c-0.5,6.1-0.8,11.9-0.8,17.4
	c0,7.8,0.6,13.1,1.8,15.8c1.2,2.7,3.4,4.1,6.9,4.1c3.7,0,7-0.9,9.7-2.7c0-16.8-0.2-28.2-0.6-34.2l12.9-0.4c-0.3,6-0.5,13.8-0.5,23.5
	C144.2,49.3,144.6,56.7,145.5,64.3L145.5,64.3z"/>
<path class="st0" d="M185.3,18.9l-2.8,11.2c-2.4-1-4.8-1.4-7.2-1.4c-4.7,0-7.8,2.1-9.3,6.3c0,12.7,0.1,22.5,0.3,29.4h-12.7
	c0.5-9.6,0.8-17.5,0.8-23.5c0-7.6-0.8-14.8-2.4-21.6l12.2-1.3c0.5,3.5,0.8,5.6,0.8,6.2h0.8c2.9-4.5,6.8-6.8,11.7-6.8
	C179.9,17.3,182.5,17.8,185.3,18.9L185.3,18.9z"/>
<path class="st0" d="M233.7,40.5c0,8-2.5,14.3-7.4,18.9s-10.8,6.8-17.5,6.8S197,64.1,192.4,60c-4.6-4.1-6.8-10-6.8-17.4
	c0-8.1,2.5-14.4,7.5-19s10.8-6.8,17.5-6.8c6.4,0,11.8,2.1,16.3,6.2S233.7,33,233.7,40.5L233.7,40.5z M221.2,42
	c0-4.6-1.1-8.5-3.2-11.6c-2.2-3.1-5-4.7-8.5-4.7s-6.1,1.5-8.3,4.4c-2.1,2.9-3.2,6.6-3.2,11c0,4.6,1.1,8.5,3.2,11.7s5,4.7,8.5,4.7
	s6.1-1.5,8.3-4.4C220.2,50,221.2,46.4,221.2,42z"/>
<path class="st0" d="M281.7,64.3H269c0.7-8.1,1-16.2,1-24.5c0-5-0.7-8.4-2.2-10.2c-1.5-1.8-3.7-2.7-6.8-2.7c-3.6,0-7.1,1.2-10.3,3.7
	c0.2,12.4,0.2,23.7,0.2,33.6H238c0.6-10,0.9-17.8,0.9-23.5c0-7.6-0.8-14.8-2.3-21.6l12.2-1.3l0.8,5.1h0.8c4.4-3.8,9.4-5.6,15.1-5.6
	c4.9,0,8.9,1.2,11.8,3.5c3,2.3,4.4,6.6,4.4,12.8c0,0.9,0,2.2-0.1,3.7s-0.1,3.1-0.1,4.8C281.5,46.3,281.5,53.8,281.7,64.3L281.7,64.3
	z"/>
</svg>
