<?xml version="1.0" encoding="utf-8"?>
<!-- Generator: Adobe Illustrator 19.2.1, SVG Export Plug-In . SVG Version: 6.00 Build 0)  -->
<svg version="1.1" id="layer" xmlns="http://www.w3.org/2000/svg" xmlns:xlink="http://www.w3.org/1999/xlink" x="0px" y="0px"
	 viewBox="0 0 652 652" style="enable-background:new 0 0 652 652;" xml:space="preserve">
<style type="text/css">
	.st0{fill-rule:evenodd;clip-rule:evenodd;fill:#C8191B;}
</style>
<path d="M214.4,389.9h-5.9l-2.4-6.1h-10.8l-2.2,6.1h-5.8l10.5-27h5.8L214.4,389.9z M204.3,379.3l-3.7-10l-3.6,10H204.3z"/>
<g>
	<path d="M226.3,363h10c2.2,0,4,0.2,5.1,0.5c1.6,0.5,2.9,1.3,4.1,2.5c1.1,1.2,2,2.7,2.6,4.4c0.6,1.7,0.9,3.8,0.9,6.4
		c0,2.2-0.3,4.1-0.8,5.7c-0.7,2-1.6,3.6-2.9,4.8c-0.9,0.9-2.2,1.6-3.8,2.1c-1.2,0.4-2.8,0.6-4.8,0.6h-10.3V363z M231.8,367.5v17.9
		h4.1c1.5,0,2.6-0.1,3.3-0.3c0.9-0.2,1.6-0.6,2.2-1.1c0.6-0.5,1.1-1.4,1.4-2.6c0.4-1.2,0.6-2.9,0.6-4.9c0-2.1-0.2-3.7-0.6-4.8
		c-0.4-1.1-0.9-2-1.5-2.6c-0.7-0.6-1.5-1-2.5-1.3c-0.8-0.2-2.3-0.3-4.5-0.3H231.8z"/>
	<path d="M264.8,383.7l5.2,0.9c-0.7,1.9-1.7,3.3-3.1,4.3c-1.4,1-3.2,1.5-5.4,1.5c-3.4,0-5.9-1.1-7.5-3.3c-1.3-1.8-1.9-4-1.9-6.7
		c0-3.2,0.8-5.8,2.5-7.6c1.7-1.8,3.8-2.8,6.4-2.8c2.9,0,5.2,1,6.9,2.9c1.7,1.9,2.5,4.9,2.4,8.8h-13c0,1.5,0.5,2.7,1.3,3.6
		c0.8,0.8,1.8,1.3,3,1.3c0.8,0,1.5-0.2,2-0.7C264.1,385.4,264.6,384.7,264.8,383.7 M265.1,378.5c0-1.5-0.4-2.6-1.2-3.4
		c-0.7-0.8-1.6-1.2-2.7-1.2c-1.1,0-2.1,0.4-2.8,1.2s-1.1,1.9-1.1,3.4H265.1z"/>
	<rect x="274.5" y="363" width="5.2" height="27"/>
	<path d="M293.9,370.4v4.1h-3.5v7.9c0,1.6,0,2.5,0.1,2.8c0.1,0.3,0.2,0.5,0.5,0.6c0.2,0.2,0.5,0.3,0.9,0.3c0.5,0,1.2-0.2,2.1-0.5
		l0.4,4c-1.2,0.5-2.6,0.8-4.1,0.8c-0.9,0-1.8-0.2-2.5-0.5c-0.7-0.3-1.3-0.7-1.6-1.2c-0.4-0.5-0.6-1.2-0.7-2
		c-0.1-0.6-0.2-1.8-0.2-3.6v-8.5h-2.4v-4.1h2.4v-3.9l5.2-3v6.9H293.9z"/>
	<path d="M301.4,376.4l-4.7-0.8c0.5-1.9,1.4-3.3,2.7-4.2c1.3-0.9,3.2-1.4,5.7-1.4c2.3,0,4,0.3,5.1,0.8c1.1,0.5,1.9,1.2,2.4,2.1
		c0.5,0.8,0.7,2.4,0.7,4.6l-0.1,6c0,1.7,0.1,3,0.2,3.8c0.2,0.8,0.5,1.7,0.9,2.6h-5.1c-0.1-0.3-0.3-0.9-0.5-1.5
		c-0.1-0.3-0.1-0.5-0.2-0.6c-0.9,0.9-1.8,1.5-2.8,1.9c-1,0.4-2.1,0.6-3.2,0.6c-2,0-3.6-0.6-4.8-1.6c-1.2-1.1-1.7-2.5-1.7-4.1
		c0-1.1,0.3-2.1,0.8-3c0.5-0.9,1.3-1.5,2.2-2c1-0.5,2.3-0.9,4.1-1.2c2.4-0.5,4.1-0.9,5-1.3v-0.5c0-1-0.2-1.7-0.7-2.1
		c-0.5-0.4-1.4-0.6-2.8-0.6c-0.9,0-1.6,0.2-2.2,0.6C302.1,374.8,301.7,375.4,301.4,376.4 M308.3,380.5c-0.7,0.2-1.7,0.5-3.1,0.8
		c-1.4,0.3-2.4,0.6-2.8,0.9c-0.7,0.5-1,1.1-1,1.8c0,0.7,0.3,1.3,0.8,1.9c0.5,0.5,1.2,0.8,2.1,0.8c0.9,0,1.8-0.3,2.7-0.9
		c0.6-0.5,1-1,1.2-1.7c0.1-0.4,0.2-1.3,0.2-2.5V380.5z"/>
	<path d="M341.5,380v-4.5h11.7v10.8c-1.1,1.1-2.8,2.1-5,2.9c-2.2,0.8-4.4,1.3-6.6,1.3c-2.8,0-5.3-0.6-7.4-1.8
		c-2.1-1.2-3.7-2.9-4.7-5.1c-1.1-2.2-1.6-4.6-1.6-7.2c0-2.8,0.6-5.3,1.8-7.5c1.2-2.2,2.9-3.8,5.2-5c1.7-0.9,3.9-1.3,6.5-1.3
		c3.4,0,6,0.7,7.9,2.1c1.9,1.4,3.1,3.4,3.6,5.8l-5.4,1c-0.4-1.3-1.1-2.4-2.1-3.1c-1-0.8-2.4-1.2-3.9-1.2c-2.4,0-4.3,0.7-5.7,2.3
		c-1.4,1.5-2.1,3.8-2.1,6.7c0,3.2,0.7,5.6,2.1,7.2c1.4,1.6,3.3,2.4,5.6,2.4c1.1,0,2.3-0.2,3.4-0.7c1.2-0.4,2.1-1,3-1.6V380H341.5z"
		/>
	<path d="M363.2,389.9H358v-19.5h4.8v2.8c0.8-1.3,1.6-2.2,2.2-2.6c0.7-0.4,1.4-0.6,2.2-0.6c1.2,0,2.3,0.3,3.4,1l-1.6,4.5
		c-0.9-0.6-1.7-0.8-2.4-0.8c-0.7,0-1.3,0.2-1.8,0.6c-0.5,0.4-0.9,1.1-1.2,2.2c-0.3,1-0.4,3.2-0.4,6.6V389.9z"/>
	<path d="M371.7,379.9c0-1.7,0.4-3.4,1.3-5c0.8-1.6,2-2.8,3.6-3.7c1.5-0.8,3.3-1.3,5.2-1.3c3,0,5.4,1,7.3,2.9
		c1.9,1.9,2.8,4.3,2.8,7.3c0,3-1,5.4-2.9,7.3c-1.9,1.9-4.3,2.9-7.2,2.9c-1.8,0-3.5-0.4-5.1-1.2c-1.6-0.8-2.9-2-3.7-3.6
		C372.1,384,371.7,382.1,371.7,379.9 M377,380.2c0,1.9,0.5,3.4,1.4,4.5c0.9,1,2.1,1.5,3.4,1.5c1.3,0,2.5-0.5,3.4-1.5
		c0.9-1,1.4-2.5,1.4-4.5c0-1.9-0.5-3.4-1.4-4.4c-0.9-1-2-1.5-3.4-1.5c-1.4,0-2.5,0.5-3.4,1.5C377.5,376.7,377,378.2,377,380.2"/>
	<path d="M408.8,389.9V387c-0.7,1-1.7,1.9-2.8,2.5c-1.2,0.6-2.4,0.9-3.7,0.9c-1.3,0-2.5-0.3-3.5-0.9c-1-0.6-1.8-1.4-2.3-2.4
		c-0.5-1-0.7-2.5-0.7-4.3v-12.4h5.2v9c0,2.7,0.1,4.4,0.3,5.1c0.2,0.6,0.5,1.1,1,1.5c0.5,0.4,1.1,0.5,1.9,0.5c0.9,0,1.7-0.2,2.4-0.7
		c0.7-0.5,1.2-1.1,1.4-1.8c0.3-0.7,0.4-2.5,0.4-5.3v-8.2h5.2v19.5H408.8z"/>
	<path d="M418.8,370.4h4.8v2.9c0.6-1,1.5-1.8,2.5-2.4c1.1-0.6,2.3-0.9,3.6-0.9c2.3,0,4.2,0.9,5.8,2.7c1.6,1.8,2.4,4.3,2.4,7.4
		c0,3.3-0.8,5.8-2.4,7.6c-1.6,1.8-3.5,2.7-5.8,2.7c-1.1,0-2.1-0.2-2.9-0.6c-0.9-0.4-1.8-1.2-2.8-2.2v9.8h-5.2V370.4z M423.9,379.8
		c0,2.2,0.4,3.8,1.3,4.9c0.9,1.1,1.9,1.6,3.2,1.6c1.2,0,2.2-0.5,3-1.4c0.8-1,1.2-2.6,1.2-4.7c0-2-0.4-3.6-1.2-4.6
		c-0.8-1-1.8-1.5-3.1-1.5c-1.3,0-2.3,0.5-3.1,1.5C424.4,376.5,423.9,377.9,423.9,379.8"/>
	<path d="M469.8,380l5.3,1.7c-0.8,2.9-2.2,5.1-4,6.6c-1.9,1.4-4.3,2.1-7.2,2.1c-3.6,0-6.5-1.2-8.8-3.7c-2.3-2.4-3.5-5.8-3.5-10
		c0-4.5,1.2-8,3.5-10.5c2.3-2.5,5.4-3.7,9.1-3.7c3.3,0,6,1,8,2.9c1.2,1.2,2.1,2.8,2.8,5l-5.4,1.3c-0.3-1.4-1-2.5-2-3.3
		c-1-0.8-2.2-1.2-3.7-1.2c-2,0-3.6,0.7-4.9,2.1c-1.2,1.4-1.9,3.8-1.9,7c0,3.4,0.6,5.8,1.8,7.3c1.2,1.4,2.8,2.2,4.8,2.2
		c1.4,0,2.7-0.5,3.7-1.4C468.6,383.4,469.3,382,469.8,380"/>
	<path d="M478.5,379.9c0-1.7,0.4-3.4,1.3-5c0.8-1.6,2-2.8,3.6-3.7c1.6-0.8,3.3-1.3,5.2-1.3c3,0,5.4,1,7.3,2.9
		c1.9,1.9,2.8,4.3,2.8,7.3c0,3-1,5.4-2.9,7.3c-1.9,1.9-4.3,2.9-7.2,2.9c-1.8,0-3.5-0.4-5.1-1.2c-1.6-0.8-2.9-2-3.7-3.6
		C478.9,384,478.5,382.1,478.5,379.9 M483.8,380.2c0,1.9,0.5,3.4,1.4,4.5c0.9,1,2.1,1.5,3.4,1.5c1.3,0,2.5-0.5,3.4-1.5
		c0.9-1,1.4-2.5,1.4-4.5c0-1.9-0.5-3.4-1.4-4.4c-0.9-1-2-1.5-3.4-1.5c-1.4,0-2.5,0.5-3.4,1.5C484.2,376.7,483.8,378.2,483.8,380.2"
		/>
	<path d="M502.3,370.4h4.8v2.7c1.7-2.1,3.7-3.1,6.1-3.1c1.2,0,2.3,0.3,3.3,0.8c0.9,0.5,1.7,1.3,2.3,2.3c0.9-1,1.8-1.8,2.8-2.3
		c1-0.5,2.1-0.8,3.2-0.8c1.4,0,2.6,0.3,3.6,0.9c1,0.6,1.7,1.4,2.2,2.6c0.4,0.8,0.5,2.2,0.5,4v12.5h-5.2v-11.2c0-1.9-0.2-3.2-0.5-3.8
		c-0.5-0.7-1.2-1.1-2.2-1.1c-0.7,0-1.4,0.2-2,0.7c-0.6,0.4-1.1,1.1-1.4,1.9c-0.3,0.8-0.4,2.2-0.4,4v9.4h-5.2v-10.7
		c0-1.9-0.1-3.1-0.3-3.7c-0.2-0.6-0.5-1-0.9-1.2c-0.4-0.3-0.9-0.4-1.6-0.4c-0.8,0-1.5,0.2-2.2,0.7c-0.6,0.4-1.1,1-1.4,1.9
		c-0.3,0.8-0.4,2.2-0.4,4v9.5h-5.2V370.4z"/>
	<path d="M536.1,370.4h4.8v2.9c0.6-1,1.5-1.8,2.5-2.4c1.1-0.6,2.3-0.9,3.6-0.9c2.3,0,4.2,0.9,5.8,2.7c1.6,1.8,2.4,4.3,2.4,7.4
		c0,3.3-0.8,5.8-2.4,7.6c-1.6,1.8-3.5,2.7-5.8,2.7c-1.1,0-2.1-0.2-2.9-0.6c-0.9-0.4-1.8-1.2-2.8-2.2v9.8h-5.2V370.4z M541.2,379.8
		c0,2.2,0.4,3.8,1.3,4.9c0.9,1.1,1.9,1.6,3.2,1.6c1.2,0,2.2-0.5,3-1.4c0.8-1,1.2-2.6,1.2-4.7c0-2-0.4-3.6-1.2-4.6
		c-0.8-1-1.8-1.5-3.1-1.5c-1.3,0-2.3,0.5-3.1,1.5C541.6,376.5,541.2,377.9,541.2,379.8"/>
	<path d="M563.1,376.4l-4.7-0.8c0.5-1.9,1.4-3.3,2.7-4.2c1.3-0.9,3.2-1.4,5.7-1.4c2.3,0,4,0.3,5.1,0.8c1.1,0.5,1.9,1.2,2.4,2.1
		c0.5,0.8,0.7,2.4,0.7,4.6l-0.1,6c0,1.7,0.1,3,0.2,3.8c0.2,0.8,0.5,1.7,0.9,2.6h-5.1c-0.1-0.3-0.3-0.9-0.5-1.5
		c-0.1-0.3-0.1-0.5-0.2-0.6c-0.9,0.9-1.8,1.5-2.8,1.9c-1,0.4-2.1,0.6-3.2,0.6c-2,0-3.6-0.6-4.8-1.6c-1.2-1.1-1.7-2.5-1.7-4.1
		c0-1.1,0.3-2.1,0.8-3c0.5-0.9,1.3-1.5,2.2-2c0.9-0.5,2.3-0.9,4.1-1.2c2.4-0.5,4.1-0.9,5-1.3v-0.5c0-1-0.2-1.7-0.7-2.1
		c-0.5-0.4-1.4-0.6-2.8-0.6c-0.9,0-1.6,0.2-2.2,0.6C563.8,374.8,563.4,375.4,563.1,376.4 M570,380.5c-0.7,0.2-1.7,0.5-3.1,0.8
		c-1.4,0.3-2.4,0.6-2.8,0.9c-0.7,0.5-1,1.1-1,1.8c0,0.7,0.3,1.3,0.8,1.9c0.5,0.5,1.2,0.8,2.1,0.8c0.9,0,1.8-0.3,2.7-0.9
		c0.6-0.5,1-1,1.2-1.7c0.1-0.4,0.2-1.3,0.2-2.5V380.5z"/>
	<path d="M598,389.9h-5.2v-10c0-2.1-0.1-3.5-0.3-4.1c-0.2-0.6-0.6-1.1-1.1-1.4c-0.5-0.3-1.1-0.5-1.8-0.5c-0.9,0-1.7,0.2-2.4,0.7
		c-0.7,0.5-1.2,1.1-1.5,2c-0.3,0.8-0.4,2.3-0.4,4.5v8.9h-5.2v-19.5h4.8v2.9c1.7-2.2,3.8-3.3,6.4-3.3c1.1,0,2.2,0.2,3.1,0.6
		c0.9,0.4,1.7,0.9,2.1,1.6c0.5,0.6,0.8,1.4,1,2.2c0.2,0.8,0.3,2,0.3,3.5V389.9z"/>
</g>
<g>
	<path d="M600.8,370.4h5.5l4.7,13.9l4.6-13.9h5.4l-6.9,18.8l-1.2,3.4c-0.5,1.1-0.9,2-1.3,2.6c-0.4,0.6-0.9,1.1-1.4,1.5
		c-0.5,0.4-1.2,0.7-2,0.9c-0.8,0.2-1.7,0.3-2.6,0.3c-1,0-2-0.1-2.9-0.3l-0.5-4.1c0.8,0.2,1.5,0.2,2.2,0.2c1.2,0,2.1-0.4,2.7-1.1
		c0.6-0.7,1-1.6,1.3-2.7L600.8,370.4z"/>
	<path class="st0" d="M97.1,245.7c-42,0-76.1,34.1-76.1,76.1c0,42,34.1,76.1,76.1,76.1c42,0,76.1-34.1,76.1-76.1
		C173.2,279.7,139.1,245.7,97.1,245.7 M94.2,394.9c-38.8,0-70.4-31.2-70.4-70c0-38.8,31.6-70.4,70.4-70.4
		c38.8,0,70.4,31.6,70.4,70.4C164.6,363.7,133.1,394.9,94.2,394.9"/>
</g>
<g>
	<path class="st0" d="M61.4,272.2c0,0,21.6,46.9-5.9,97.4c0,0,42.7-14.3,74.3,1.3c0,0,1.2-10.5,14.2-19.7c0,0-19.5-11.2-50.7-9.2
		c0,0,8.4-25.1-3.6-77.3C89.7,264.6,80.8,271.3,61.4,272.2"/>
	<path d="M203.7,261.9v58.9h33.2c2.7,0,4.7,0.6,6.1,1.9c1.4,1.3,2.1,2.9,2.1,4.9c0,2-0.7,3.6-2.1,4.8c-1.4,1.2-3.4,1.9-6.1,1.9
		h-39.6c-3.6,0-6.1-0.8-7.7-2.4c-1.6-1.6-2.3-4.1-2.3-7.7v-62.3c0-3.3,0.7-5.8,2.2-7.5c1.5-1.7,3.5-2.5,5.9-2.5c2.5,0,4.5,0.8,6,2.5
		C203,256.1,203.7,258.6,203.7,261.9"/>
	<path d="M285.9,252c8.4,0,15.6,1.7,21.6,5.1c6,3.4,10.6,8.3,13.7,14.5c3.1,6.3,4.6,13.6,4.6,22.1c0,6.3-0.8,11.9-2.5,17.1
		c-1.7,5.1-4.2,9.5-7.6,13.3c-3.4,3.7-7.5,6.6-12.5,8.6c-4.9,2-10.6,3-16.9,3c-6.3,0-12-1-17-3.1c-5-2-9.2-4.9-12.5-8.6
		c-3.3-3.7-5.9-8.2-7.6-13.4c-1.7-5.2-2.6-10.9-2.6-16.9c0-6.2,0.9-11.9,2.7-17.1c1.8-5.2,4.4-9.6,7.8-13.2
		c3.4-3.6,7.5-6.4,12.4-8.3C274.2,253,279.7,252,285.9,252 M309.2,293.6c0-5.9-1-11.1-2.9-15.4c-1.9-4.3-4.6-7.6-8.2-9.8
		c-3.6-2.2-7.6-3.3-12.2-3.3c-3.3,0-6.3,0.6-9.1,1.8c-2.8,1.2-5.2,3-7.2,5.4c-2,2.4-3.6,5.4-4.7,9c-1.2,3.7-1.7,7.8-1.7,12.3
		c0,4.6,0.6,8.8,1.7,12.5c1.2,3.7,2.8,6.8,4.9,9.2c2.1,2.4,4.5,4.3,7.3,5.5c2.7,1.2,5.7,1.8,9,1.8c4.2,0,8-1.1,11.6-3.1
		c3.5-2.1,6.3-5.3,8.4-9.7C308.1,305.4,309.2,300,309.2,293.6"/>
	<path d="M353.5,325.7V300l-19.8-30.6c-1.7-2.8-3-4.9-3.7-6.5c-0.7-1.5-1.1-2.9-1.1-4c0-1.9,0.7-3.5,2.2-4.9c1.4-1.4,3.2-2,5.4-2
		c2.2,0,3.9,0.6,5.1,1.9c1.2,1.3,2.9,3.8,5.2,7.6L362,286l15.3-24.6c0.9-1.5,1.7-2.8,2.3-3.8c0.6-1,1.3-2,2.1-2.9
		c0.8-0.9,1.6-1.6,2.5-2.1c0.9-0.5,2.1-0.7,3.4-0.7c2.1,0,3.8,0.7,5.2,2c1.4,1.3,2.1,2.9,2.1,4.7c0,1.4-0.4,2.9-1,4.3
		c-0.7,1.4-1.9,3.4-3.6,6L369.9,300v25.7c0,3.4-0.8,5.9-2.3,7.5c-1.5,1.6-3.5,2.5-5.9,2.5c-2.4,0-4.4-0.8-5.9-2.5
		C354.3,331.6,353.5,329.1,353.5,325.7"/>
	<path d="M458.6,266.9h-17.9v58.8c0,3.4-0.8,5.9-2.3,7.5c-1.5,1.6-3.5,2.5-5.9,2.5c-2.4,0-4.4-0.8-5.9-2.5c-1.5-1.6-2.3-4.1-2.3-7.5
		v-58.8h-17.9c-2.8,0-4.9-0.6-6.2-1.8c-1.4-1.2-2-2.9-2-4.9c0-2.1,0.7-3.8,2.1-5c1.4-1.2,3.5-1.8,6.1-1.8h52.1
		c2.8,0,4.9,0.6,6.3,1.9c1.4,1.2,2.1,2.9,2.1,4.9c0,2-0.7,3.7-2.1,4.9C463.5,266.3,461.4,266.9,458.6,266.9"/>
	<path d="M530,266h-36.9v19.9h34c2.5,0,4.4,0.6,5.6,1.7c1.2,1.1,1.8,2.6,1.8,4.4c0,1.8-0.6,3.4-1.8,4.5c-1.2,1.1-3.1,1.7-5.6,1.7
		h-34v23h38.2c2.6,0,4.5,0.6,5.8,1.8c1.3,1.2,2,2.8,2,4.8c0,1.9-0.7,3.5-2,4.7c-1.3,1.2-3.2,1.8-5.8,1.8h-44.5
		c-3.6,0-6.1-0.8-7.7-2.4c-1.6-1.6-2.4-4.1-2.4-7.7v-60.8c0-2.3,0.4-4.3,1.1-5.8c0.7-1.5,1.8-2.6,3.3-3.3c1.5-0.7,3.4-1,5.7-1H530
		c2.6,0,4.6,0.6,5.8,1.7c1.3,1.2,1.9,2.7,1.9,4.5c0,1.9-0.6,3.5-1.9,4.6C534.6,265.4,532.7,266,530,266"/>
	<path d="M621,308.7c0,2.6-0.6,5.4-1.9,8.4c-1.3,3-3.3,5.9-6,8.8c-2.7,2.9-6.2,5.2-10.4,7.1c-4.2,1.8-9.2,2.7-14.8,2.7
		c-4.3,0-8.1-0.4-11.6-1.2c-3.5-0.8-6.7-2.1-9.5-3.8c-2.8-1.7-5.5-4-7.9-6.8c-2.1-2.5-4-5.4-5.5-8.5c-1.5-3.1-2.6-6.5-3.4-10.1
		c-0.8-3.6-1.1-7.4-1.1-11.4c0-6.5,1-12.3,2.8-17.5c1.9-5.1,4.6-9.6,8.1-13.2c3.5-3.7,7.7-6.4,12.4-8.4c4.7-1.9,9.8-2.9,15.2-2.9
		c6.6,0,12.4,1.3,17.5,3.9c5.1,2.6,9,5.8,11.7,9.7c2.7,3.8,4.1,7.5,4.1,10.9c0,1.9-0.7,3.5-2,5c-1.3,1.4-2.9,2.2-4.8,2.2
		c-2.1,0-3.7-0.5-4.7-1.5c-1-1-2.2-2.7-3.5-5.1c-2.1-4-4.6-7-7.5-9c-2.9-2-6.4-3-10.7-3c-6.7,0-12.1,2.6-16.1,7.7
		c-4,5.1-6,12.4-6,21.8c0,6.3,0.9,11.5,2.6,15.7c1.8,4.2,4.3,7.3,7.5,9.3c3.2,2.1,7,3.1,11.4,3.1c4.7,0,8.7-1.2,11.9-3.5
		c3.3-2.3,5.7-5.8,7.4-10.3c0.7-2.1,1.6-3.9,2.6-5.2c1-1.3,2.7-2,5-2c2,0,3.6,0.7,5,2C620.3,305,621,306.7,621,308.7"/>
</g>
</svg>
