<svg xmlns="http://www.w3.org/2000/svg" viewBox="0 0 130 130"><defs><style>.a{fill:#0367a6;}.b{fill:#003651;}</style></defs><title>Iotecs-Logo-Final</title><path class="a" d="M41.8,104.9l3.59,4.78a4.36,4.36,0,0,1-.38,5.67h0a4.25,4.25,0,0,1-6.43-.43l-13-17.26-.06-.12L20.1,90.42,18.25,88l-2.81-3.73L10.06,77.1,1,65.06a4.88,4.88,0,0,1,0-5.88L8.8,48.84l5.39-7.15L38.59,9.36A4.24,4.24,0,0,1,45,8.92h0a4.36,4.36,0,0,1,.38,5.67L41.8,19.36,19.55,48.84,14.19,56l-.85,1.11a8.46,8.46,0,0,0,0,10.1l2.1,2.8,5.39,7.12,4.66,6.19L29,88l1.87,2.43Z"/><path class="a" d="M45.48,83.72l1.81,2.41A2.22,2.22,0,0,1,47.1,89h0a2.16,2.16,0,0,1-3.25-.22l-6.57-8.71,0-.06-2.72-3.6-.93-1.22L32.17,73.3l-2.71-3.61-4.59-6.08a2.46,2.46,0,0,1,0-3l3.94-5.21,2.72-3.61L43.86,35.5a2.14,2.14,0,0,1,3.24-.22h0a2.2,2.2,0,0,1,.19,2.86l-1.81,2.41L34.25,55.43,31.54,59l-.43.56a4.29,4.29,0,0,0,0,5.1l1.06,1.4,2.72,3.6,2.35,3.12L39,75.19,40,76.41Z"/><path class="b" d="M130,4.84V58.93a8,8,0,0,1-8,8H99.4a8.74,8.74,0,0,1-15.89-2.7,8.87,8.87,0,0,1,8.54-11,8.71,8.71,0,0,1,7.35,4h18a4,4,0,0,0,4-4V14.52a4.81,4.81,0,0,0-4.79-4.84H54.52a4.81,4.81,0,0,1-4.79-4.84h0A4.81,4.81,0,0,1,54.52,0h70.69a3.54,3.54,0,0,1,.47,0h0C127.64,0,130,2.34,130,4.84Z"/><path class="a" d="M130,98v21.4a4.84,4.84,0,0,1-4.3,4.82h0a3.54,3.54,0,0,1-.47,0H54.52a4.81,4.81,0,0,1-4.79-4.84h0a4.81,4.81,0,0,1,4.79-4.84h62.07a4.81,4.81,0,0,0,4.79-4.84v-6a4.81,4.81,0,0,0-4.79-4.84H68.73a9.09,9.09,0,0,1-9-9.14v-.54h0V34.56a9.12,9.12,0,0,1,9.07-9.18H96.65a8.73,8.73,0,0,1,8.7-3.94A8.89,8.89,0,0,1,104,39.1a8.71,8.71,0,0,1-7.35-4H73.1a4.82,4.82,0,0,0-4.79,4.84V84.42A4.76,4.76,0,0,0,73,89.21h48.23A8.78,8.78,0,0,1,130,98Z"/></svg>